<svg width="30" height="26" viewBox="0 0 30 26" fill="none" xmlns="http://www.w3.org/2000/svg">
<path d="M27.4891 13.3894C30.5545 10.324 30.5545 5.33956 27.4891 2.29907C24.4237 -0.766355 19.4393 -0.766355 16.3738 2.29907L14.8785 3.79439L13.3832 2.29907C10.3178 -0.766355 5.33333 -0.766355 2.29283 2.29907C0.797508 3.76947 0 5.76324 0 7.8567C0 9.95016 0.82243 11.919 2.29283 13.4143L14.8785 26L27.4891 13.3894ZM1.96885 7.8567C1.96885 6.2866 2.56698 4.8162 3.68847 3.71963C4.83489 2.57321 6.33022 2 7.82555 2C9.32087 2 10.8162 2.57321 11.9626 3.71963L14.8785 6.61059L17.7944 3.6947C20.0872 1.40187 23.8006 1.40187 26.0685 3.6947C27.1651 4.79128 27.7882 6.26168 27.7882 7.83178C27.7882 9.40187 27.19 10.8723 26.0685 11.9688L14.8785 23.1838L3.68847 11.9938C2.5919 10.8723 1.96885 9.40187 1.96885 7.8567Z" fill="#3166DE"/>
</svg>
